<?xml version="1.0" encoding="utf-8"?>
<!-- Generator: Adobe Illustrator 24.1.1, SVG Export Plug-In . SVG Version: 6.00 Build 0)  -->
<svg version="1.1" id="Layer_1" xmlns="http://www.w3.org/2000/svg" xmlns:xlink="http://www.w3.org/1999/xlink" x="0px" y="0px"
	 viewBox="0 0 512 512" style="enable-background:new 0 0 512 512;" xml:space="preserve">
<style type="text/css">
	.st0{fill:#231F20;}
</style>
<g>
	<path class="st0" d="M480,224H100.5L216.6,84.5c11.3-13.6,9.5-33.8-4.2-45.1s-33.8-9.5-45.1,4.2l-160,192l-2.9,4.8l-2.3,4.2
		C0.8,248.2,0,252.1,0,256c0,3.9,0.8,7.8,2.2,11.5l2.3,4.2l2.9,4.8l160,192c6.1,7.3,15.1,11.5,24.6,11.5c7.5,0,14.7-2.6,20.5-7.4
		c13.6-11.3,15.5-31.5,4.2-45.1l0-0.1L100.5,288H480c17.7,0,32-14.3,32-32S497.7,224,480,224z"/>
</g>
</svg>
